<svg width="497" height="203" viewBox="0 0 497 203" fill="none" xmlns="http://www.w3.org/2000/svg">
<path d="M9.6824 42.1291L36.4976 40.2641C45.2232 39.6572 51.9302 41.5431 56.6187 45.9217C61.3071 50.3003 63.9658 57.012 64.5949 66.0568L68.5247 122.56C69.1538 131.605 67.4497 138.62 63.4126 143.606C59.3754 148.591 52.994 151.387 44.2685 151.994L17.4532 153.859L9.6824 42.1291ZM42.8391 136.055C45.7122 135.855 47.8344 134.852 49.2057 133.046C50.6834 131.232 51.2891 128.41 51.0226 124.58L46.9818 66.4799C46.7154 62.6491 45.7249 59.938 44.0103 58.3464C42.4022 56.7475 40.1616 56.0479 37.2885 56.2478L28.3501 56.8694L33.9007 136.677L42.8391 136.055Z" fill="#E40A14"/>
<path d="M112.561 149.661C103.93 150.057 97.2109 147.909 92.4042 143.218C87.5975 138.527 84.9888 131.706 84.5782 122.755L81.8799 63.9372C81.4693 54.9866 83.4425 47.9554 87.7995 42.8437C92.1565 37.732 98.6505 34.9782 107.281 34.5823C115.912 34.1863 122.631 36.334 127.438 41.0253C132.245 45.7167 134.853 52.5376 135.264 61.4882L137.962 120.306C138.373 129.257 136.399 136.288 132.042 141.4C127.685 146.511 121.192 149.265 112.561 149.661ZM111.827 133.678C117.901 133.399 120.769 129.584 120.432 122.232L117.631 61.1759C117.294 53.8237 114.088 50.2868 108.015 50.5655C101.941 50.8441 99.0728 54.6595 99.4101 62.0118L102.211 123.068C102.548 130.42 105.754 133.957 111.827 133.678Z" fill="#E40A14"/>
<path d="M181.778 147.287C173.247 147.479 166.688 145.227 162.101 140.529C157.511 135.725 155.114 128.791 154.909 119.726L153.58 60.8614C153.375 51.797 155.458 44.8149 159.828 39.9149C164.196 34.9083 170.646 32.3087 179.177 32.116C187.708 31.9233 194.269 34.2291 198.858 39.0333C203.445 43.7309 205.841 50.6119 206.046 59.6763L206.263 69.2738L189.627 69.6496L189.385 58.9323C189.219 51.5742 186.097 47.9638 180.018 48.1011C173.94 48.2384 170.984 51.9861 171.15 59.3442L172.534 120.609C172.697 127.86 175.819 131.417 181.897 131.28C187.975 131.143 190.933 127.448 190.769 120.197L190.274 98.2823L181.476 98.481L181.115 82.4851L206.548 81.9106L207.376 118.541C207.581 127.606 205.499 134.641 201.131 139.648C196.76 144.548 190.31 147.094 181.778 147.287Z" fill="#E40A14"/>
<path d="M224.456 32.9561L242.056 32.9383L242.153 128.938L271.113 128.909L271.129 144.909L224.569 144.956L224.456 32.9561Z" fill="#E40A14"/>
<path d="M300.297 33.3457L324.132 33.8439L340.028 146.201L322.432 145.833L319.697 123.531L319.69 123.851L299.695 123.433L296.037 145.281L279.721 144.94L300.297 33.3457ZM317.928 108.611L311.247 53.0988L310.927 53.0921L302.092 108.28L317.928 108.611Z" fill="#E40A14"/>
<path d="M359.167 34.802L381.224 35.799L395.3 103.544L395.62 103.558L398.647 36.5865L414.311 37.2945L409.254 149.18L391.192 148.364L373.785 65.7336L373.466 65.7192L369.774 147.396L354.11 146.688L359.167 34.802Z" fill="#E40A14"/>
<path d="M435.562 38.5296L462.377 40.3946C471.103 41.0015 477.484 43.7977 481.522 48.7831C485.559 53.7686 487.263 60.7837 486.634 69.8285L482.704 126.332C482.075 135.377 479.416 142.089 474.728 146.467C470.039 150.846 463.332 152.732 454.607 152.125L427.791 150.26L435.562 38.5296ZM455.398 136.141C458.271 136.341 460.511 135.641 462.119 134.042C463.834 132.451 464.824 129.74 465.091 125.909L469.132 67.8093C469.398 63.9786 468.792 61.1564 467.315 59.3429C465.943 57.5367 463.821 56.5337 460.948 56.3339L452.01 55.7122L446.459 135.519L455.398 136.141Z" fill="#E40A14"/>
</svg>
