<svg width="517" height="137" viewBox="0 0 517 137" fill="none" xmlns="http://www.w3.org/2000/svg">
<mask id="mask0_1266_75" style="mask-type:alpha" maskUnits="userSpaceOnUse" x="0" y="0" width="517" height="137">
<rect width="517" height="137" fill="#D9D9D9"/>
</mask>
<g mask="url(#mask0_1266_75)">
<path d="M23.6935 32.7956L5.34039 34.1087L4.19863 18.1494L58.4599 14.2675L59.6017 30.2267L41.2486 31.5397L48.0992 127.295L30.5441 128.551L23.6935 32.7956Z" fill="#E4310A"/>
<path d="M74.9538 13.2651L92.5325 12.4007L94.7721 57.9457L113.629 57.0184L111.39 11.4734L128.969 10.609L134.469 122.474L116.89 123.338L114.415 72.9991L95.5579 73.9263L98.0331 124.266L80.4544 125.13L74.9538 13.2651Z" fill="#E4310A"/>
<path d="M178.786 122.718C170.256 122.939 163.689 120.708 159.087 116.026C154.481 111.237 152.061 104.31 151.827 95.2465L149.617 9.83507L167.211 9.37985L169.454 96.0708C169.553 99.9096 170.371 102.663 171.908 104.33C173.552 105.995 175.813 106.79 178.692 106.715C181.571 106.641 183.735 105.731 185.184 103.987C186.739 102.239 187.467 99.4461 187.368 95.6073L185.125 8.91635L202.079 8.47768L204.289 93.8891C204.524 102.953 202.465 109.995 198.113 115.016C193.759 119.93 187.317 122.498 178.786 122.718Z" fill="#E4310A"/>
<path d="M222.571 8.18049L249.131 8.09839C258.197 8.07036 264.817 10.1832 268.991 14.437C273.163 18.5842 275.263 25.031 275.29 33.7777L275.304 38.2576C275.322 44.0176 274.377 48.7139 272.468 52.3465C270.666 55.9787 267.847 58.6008 264.012 60.2126L264.013 60.5326C272.769 63.4923 277.166 71.2654 277.205 83.852L277.235 93.4519C277.262 102.092 274.989 108.712 270.416 113.313C265.95 117.807 259.344 120.067 250.597 120.094L222.917 120.18L222.571 8.18049ZM247.192 53.7046C250.712 53.6937 253.322 52.779 255.023 50.9604C256.831 49.1415 257.728 46.0987 257.715 41.832L257.696 35.5921C257.683 31.5387 256.928 28.6077 255.429 26.799C254.036 24.99 251.794 24.0902 248.7 24.0998L240.22 24.126L240.312 53.7259L247.192 53.7046ZM250.548 104.094C253.641 104.085 255.932 103.278 257.42 101.673C258.908 99.9619 259.646 97.0797 259.633 93.0263L259.603 83.2664C259.587 78.1464 258.67 74.6292 256.851 72.7148C255.138 70.6935 252.255 69.689 248.201 69.7016L240.361 69.7258L240.468 104.126L250.548 104.094Z" fill="#E4310A"/>
<path d="M294.737 8.22481L341.289 9.06557L341 25.063L312.045 24.54L311.482 55.7349L334.198 56.1452L333.909 72.1426L311.193 71.7323L310.312 120.524L292.714 120.207L294.737 8.22481Z" fill="#E4310A"/>
<path d="M356.724 9.54077L374.312 10.202L370.705 106.134L399.644 107.222L399.043 123.211L352.516 121.462L356.724 9.54077Z" fill="#E4310A"/>
<path d="M418.269 12.1027L435.844 13.0386L429.889 124.88L412.314 123.944L418.269 12.1027Z" fill="#E4310A"/>
<path d="M467.611 69.8125L452.15 13.8655L470.664 15.1719L479.93 52.0756L480.249 52.0981L494.924 16.8837L511.523 18.0549L488.359 71.2765L504.597 129.845L486.083 128.538L476.063 88.6942L475.744 88.6717L459.908 126.691L443.309 125.52L467.611 69.8125Z" fill="#E4310A"/>
</g>
</svg>
